<?xml version="1.0" encoding="utf-8"?>
<!-- Generator: Adobe Illustrator 22.0.0, SVG Export Plug-In . SVG Version: 6.00 Build 0)  -->
<svg version="1.1" id="Layer_1" xmlns="http://www.w3.org/2000/svg" xmlns:xlink="http://www.w3.org/1999/xlink" x="0px" y="0px"
	 viewBox="0 0 1008 303.7" style="enable-background:new 0 0 1008 303.7;" xml:space="preserve">
<style type="text/css">
	.st0{fill:#1F448E;}
	.st1{fill:#2F4F9E;}
	.st2{fill:none;}
	.st3{fill:#58BAE9;}
</style>
<g>
	<path class="st0" d="M636.7,174.7l-45.5,2.2c0.2-3,0.3-5.4,0.3-7c0-10-2.5-18.5-7.6-25.5c-5.1-7-12.7-10.5-22.9-10.5
		c-16.7,0-28.7,10-35.9,30.1c-7.2,20.1-10.9,39.7-10.9,58.9c0,14.3,3.1,24.7,9.2,31.3c6.1,6.6,14,9.8,23.6,9.8
		c19.5,0,32.9-12.2,40.2-36.7l40.9,7.1c-15.2,45.3-43.4,67.9-84.7,67.9c-25.5,0-45.1-8.4-58.6-25.3c-13.5-16.8-20.3-37.2-20.3-60.9
		c0-31.7,8.8-59.7,26.4-83.8c17.6-24.1,40.9-36.2,70.1-36.2c21.1,0,38.7,6.4,52.9,19.2C628.3,128.1,635.8,147.9,636.7,174.7"/>
	<path class="st0" d="M720.8,303.7c-23.7,0-42.8-8-57.3-24c-14.5-16-21.7-37.1-21.7-63.4c0-31.8,8.6-59.7,25.7-83.7
		c17.2-24,40-36,68.4-36c24.4,0,43.8,8.1,58.2,24.3c14.4,16.2,21.5,37.6,21.5,64.3c0,32.3-8.5,60.1-25.6,83.5
		C773,292,749.9,303.7,720.8,303.7 M721.5,266.6c17.3,0,29.6-9.9,37.1-29.7c7.5-19.8,11.2-39.3,11.2-58.3
		c0-29.9-11.2-44.9-33.7-44.9c-16,0-28,9.3-36,28c-8,18.7-12.1,39.1-12.1,61.4C688,252.1,699.2,266.6,721.5,266.6"/>
	<path class="st0" d="M1008,97.3l-34.7,206.2h-38.6l-60.1-149.4c-0.4,10-3.7,33.5-9.8,70.6l-13.1,78.8h-38.8l34.4-206.2h52.3
		L949.2,223c0.3-4.1,3.3-24.3,9.1-60.5l10.9-65.2L1008,97.3L1008,97.3z"/>
	<g>
		<path class="st1" d="M256.4,95.3L227,301.1h-40.5l29.4-205.8H256.4z"/>
	</g>
	<path class="st2" d="M331.8,95.3c0,0,18.7,29.5,28.8,45.4L331.8,95.3z"/>
	<path class="st3" d="M367.7,152l-7.1-11.2c-10.1-15.9-28.8-45.4-28.8-45.4h-63.6l99.6,148.7L517.6,0L367.7,152z"/>
	<polygon class="st1" points="324.8,200.8 256.9,301.1 326.1,301.1 356.3,252.5 	"/>
	<polygon class="st1" points="408.2,200.7 376.8,252.4 407.4,301.1 476.2,301.1 	"/>
	<path class="st3" d="M141.4,128.6H64.7C85.9,128.6,122.8,128.7,141.4,128.6z"/>
	<g>
		<path class="st3" d="M111.5,184.7c7.3,0.1,13.2-2.8,17.7-8.5c3.4-4.2,5.4-9.7,6.8-15.5c0.8-3.5,2.1-11.8,2.1-11.8h-81L24.2,301.1
			h27.5l25.3-116.5C76.9,184.6,104.6,184.7,111.5,184.7z"/>
		<path class="st3" d="M179.8,122.7c-6.5-15.3-16.8-24.1-30.8-26.4c-5.3-0.9-10.5-1.6-15.9-1.6c-33.9,0-105.2,0-105.2,0L0,223.5
			h27.4L48,128.6h16.6h76.7c9.3-0.1,17.4,6.6,16.5,19.5c-0.9,11.4-3.4,22.3-7.7,32.7c-1.7,4.1-5,8.9-10,14.4
			c-6.2,6.7-13.9,10.1-23.2,10.1c-3.8,0-24.4-0.1-24.4-0.1l-20.9,96h27.3l13.5-62.6h7.7c1.8,0,3.6-0.1,5.3-0.5
			c28.7-7,48.5-31.2,55.5-67.1c1.7-8.8,2.7-14.2,3-16.3C185.3,143.7,183.9,133.1,179.8,122.7z"/>
	</g>
</g>
</svg>
